<?xml version="1.0" encoding="UTF-8"?>
<svg id="Livello_1" xmlns="http://www.w3.org/2000/svg" version="1.1" viewBox="0 0 173.56 61.67">
  <!-- Generator: Adobe Illustrator 30.0.0, SVG Export Plug-In . SVG Version: 2.1.1 Build 123)  -->
  <defs>
    <style>
      .st0 {
        isolation: isolate;
      }
    </style>
  </defs>
  <g class="st0">
    <g class="st0">
      <path d="M25.64,38.93c-.24-.13-.37-.28-.39-.44s.07-.44.27-.84.51-1.02.94-1.87c.32-.6.56-1.07.73-1.41.17-.34.28-.59.34-.73s.09-.24.09-.28c-.03-.12-.01-.22.04-.29.05-.07.14-.14.26-.19.07-.07.18-.19.33-.36.15-.17.3-.38.43-.62.12-.28.26-.57.42-.86.16-.29.37-.66.64-1.11.27-.45.61-1.03,1.04-1.75.27-.47.56-.95.88-1.43.32-.49.66-.97,1.02-1.45.15-.19.28-.34.4-.45.12-.11.24-.16.36-.15.16,0,.34.05.55.16.21.11.4.25.57.42.17.17.3.36.38.56.07.11.09.33.08.68-.01.35-.04.77-.08,1.26-.04.49-.09,1.02-.14,1.58-.04.55-.1,1.2-.18,1.94-.08.75-.16,1.53-.23,2.35-.07.81-.13,1.6-.17,2.36-.04.76-.04,1.41,0,1.97.01.12.01.23,0,.34-.01.11-.02.19-.02.26-.08.08-.21.12-.39.11-.18,0-.35-.05-.52-.13-.17-.08-.26-.18-.29-.3-.04-.04-.06-.1-.07-.17,0-.07,0-.23,0-.47.01-.24.03-.62.04-1.14l.1-3.25-.26.02c-.12,0-.35.01-.68.04-.33.03-.7.06-1.08.11s-.75.09-1.07.14c-.33.05-.55.09-.67.13-.12,0-.26.08-.43.24-.17.16-.32.37-.47.62-.05.19-.15.38-.29.59-.14.21-.21.35-.21.41-.09.07-.2.19-.32.38,0,.08-.06.28-.19.59s-.28.66-.47,1.04-.37.71-.56.99l-.42.64-.32-.24ZM29.79,32.47c.28-.05.52-.1.71-.13.19-.03.37-.05.53-.05.56-.13.97-.22,1.22-.27.25-.05.43-.07.53-.07s.19.02.27.06c.05.07.13.12.22.14.01-.03.03-.18.06-.46.03-.28.06-.63.11-1.04.05-.41.09-.84.14-1.29.05-.45.08-.86.11-1.24s.05-.67.06-.87c.01-.25.03-.59.06-1-.08,0-.25.15-.51.44-.26.29-.55.68-.87,1.16s-.62,1-.9,1.54c-.13.25-.26.48-.38.68-.12.2-.21.3-.28.3-.03.03-.1.14-.23.35s-.26.44-.41.7c-.15.26-.27.49-.36.7-.09.21-.12.32-.08.35Z"/>
      <path d="M35.87,39.51c-.13-.15-.22-.27-.26-.37-.04-.1-.04-.22,0-.36.03-.14.08-.34.15-.59.11-.43.22-.79.35-1.07s.25-.59.38-.9.24-.72.33-1.21c.21-.49.4-.96.57-1.4.17-.44.34-.94.53-1.5.01-.05.07-.19.18-.42.11-.23.24-.5.41-.83.17-.33.32-.66.47-.99.23-.64.41-1.19.55-1.65s.28-.88.43-1.25c.15-.37.34-.74.58-1.1.16-.28.35-.46.56-.54s.42-.08.61.01c.19.09.33.26.41.53.07.13.12.29.17.48.05.19.09.46.13.81.04.35.07.85.08,1.49.03.76.03,1.51.02,2.26-.01.74-.01,1.43,0,2.06.02.63.09,1.16.21,1.6.04.24.1.53.17.87.07.34.15.68.24,1.01s.17.62.26.84.16.34.21.34c.07,0,.16-.09.27-.26.11-.17.26-.49.44-.94.18-.46.4-1.1.65-1.94s.54-1.91.86-3.22c.07-.23.16-.59.27-1.1.11-.51.2-1.02.25-1.54.09-.33.19-.7.28-1.1.09-.4.18-.75.25-1.06.07-.31.11-.48.11-.52,0-.09,0-.17,0-.24,0-.07,0-.13,0-.2.07,0,.13-.09.18-.27s.08-.34.08-.47c0-.23.03-.41.09-.55.06-.14.12-.24.19-.31.04-.11.14-.16.3-.15.16,0,.32.05.48.13.16.08.26.19.3.32.03.15-.01.48-.11.99s-.25,1.21-.45,2.08c0,.15-.04.39-.12.72-.08.33-.16.69-.25,1.06s-.15.7-.19.96c-.05.35-.11.67-.18.97-.07.3-.13.45-.2.43-.35,1.51-.71,2.8-1.09,3.86s-.72,1.93-1.01,2.6c-.32.73-.67,1.18-1.05,1.33-.38.15-.79-.04-1.21-.59-.25-.35-.45-.69-.6-1.03-.15-.34-.27-.74-.36-1.2-.09-.46-.21-1.03-.34-1.71-.2-.55-.31-1.1-.33-1.66-.02-.56,0-1.14.05-1.73.05-.59.09-1.21.12-1.85-.01-.64-.04-1.07-.08-1.28s-.12-.2-.23.03c-.11.23-.3.71-.55,1.41-.09.25-.22.56-.37.92-.15.36-.3.72-.45,1.07-.15.35-.27.66-.38.92-.11.26-.17.43-.2.49-.08.16-.17.37-.28.63-.11.26-.19.54-.26.83-.48,1.26-.84,2.26-1.07,3.01s-.4,1.27-.51,1.56c-.13.37-.27.62-.42.75-.15.13-.35.05-.62-.23Z"/>
      <path d="M50.04,40.17c-.25.04-.49.06-.7.07-.21,0-.53-.04-.94-.15-.21-.07-.36-.15-.45-.24s-.23-.27-.43-.52c-.15-.21-.25-.41-.31-.59-.06-.18-.07-.32-.03-.42s.13-.13.26-.09c.04.01.1.06.19.13.09.07.17.16.25.27.19.2.41.33.68.4.27.07.62.07,1.06.02.19-.04.41-.1.68-.17.27-.07.53-.16.78-.27.25-.11.45-.21.6-.32.71-.48,1.49-1,2.35-1.56.03-.05.08-.1.15-.13.07-.03.16-.07.27-.11.08-.08.21-.21.39-.38.18-.17.35-.35.52-.52.17-.17.27-.28.31-.3.03-.12.05-.22.08-.29.03-.07.04-.15.04-.23.11-.11.25-.33.43-.67.18-.34.36-.72.55-1.14.19-.42.32-.8.4-1.15.19-.93.23-1.72.14-2.37-.09-.64-.28-1.19-.57-1.65s-.65-.87-1.07-1.23c-.15-.12-.35-.25-.61-.39s-.53-.26-.81-.37c-.28-.11-.52-.19-.73-.26-.21-.07-.33-.09-.37-.08-.05.01-.16.22-.33.63-.17.41-.36.93-.59,1.55-.23.63-.47,1.3-.73,2-.26.71-.5,1.38-.73,2-.08.25-.17.52-.26.8-.09.28-.17.53-.24.73-.07.21-.1.34-.1.41-.15.23-.26.53-.35.9-.09.38-.18,1-.29,1.87-.12.45-.21.8-.26,1.03-.05.23-.11.35-.16.33-.01.01-.04.04-.08.08,0,.08-.05.12-.16.12s-.23-.03-.37-.09c-.14-.06-.25-.13-.33-.21-.04-.15-.06-.29-.07-.42s.04-.39.15-.78c.07-.25.15-.56.25-.93.1-.37.21-.75.33-1.14.12-.39.23-.76.34-1.09s.19-.59.24-.76c.09-.23.23-.65.4-1.28.11-.35.22-.69.33-1.04.11-.35.22-.66.33-.93.11-.27.18-.45.22-.53.07-.17.17-.47.3-.88.13-.41.31-.88.52-1.38l.14-.66-.22-.1c-.16.05-.28.07-.37.05-.09-.02-.14-.04-.17-.05-.08.03-.19,0-.34-.06-.15-.07-.28-.15-.39-.26-.11-.11-.18-.2-.21-.28-.03-.05-.05-.17-.06-.34.01-.08.11-.16.3-.23.19-.07.43-.14.73-.19s.63-.09.98-.11c.35-.02.7-.02,1.03,0,.35.03.67.1.98.22.31.12.64.25,1,.38.43.16.88.44,1.35.83.47.39.91.86,1.3,1.39.39.54.66,1.1.79,1.68.04.16.08.39.12.68s.06.58.07.85c0,.27-.02.45-.09.53-.03.05-.04.12-.05.19,0,.07.02.12.07.15-.01.04-.06.19-.14.45s-.15.49-.22.67c-.03.35-.11.71-.24,1.08-.13.37-.28.72-.44,1.05-.16.33-.31.6-.44.83-.05,0-.1,0-.15.03-.05.02-.04.04,0,.05,0,.07-.07.19-.22.38-.05.04-.14.14-.25.29-.11.15-.2.26-.27.31-.01.09-.05.17-.12.23-.07.06-.13.09-.18.09-.04,0-.06.03-.06.08-.11.16-.27.35-.5.57-.23.22-.48.45-.77.68-.29.23-.58.45-.88.65-.3.2-.58.35-.85.46-.13.09-.27.17-.42.23-.15.06-.29.12-.42.19-.07.05-.21.13-.44.23-.23.1-.47.2-.73.29s-.49.16-.69.2Z"/>
    </g>
    <g class="st0">
      <path d="M74.28,39.23c-.01.08-.09.1-.23.07s-.26-.13-.37-.29c-.11-.25-.16-.49-.16-.7s0-.54.02-.96c.08-.47.19-1.08.33-1.83.14-.76.31-1.61.5-2.55s.4-1.93.63-2.96c.16-.53.29-1.03.39-1.47.1-.45.2-.95.31-1.51,0-.04-.04-.02-.11.05-.07.07-.14.16-.21.25-.07.09-.09.17-.08.22-.19.27-.35.51-.5.74-.13.13-.29.4-.48.8-.19.4-.39.78-.62,1.12-.21.4-.44.83-.68,1.29-.24.46-.45.85-.64,1.15-.12.17-.24.38-.36.6-.12.23-.19.38-.22.44-.05.15-.15.32-.28.53-.13.21-.28.41-.44.61-.08.12-.16.24-.24.37-.08.13-.17.28-.26.45,0,.04-.06.16-.19.36-.13.2-.28.42-.46.66-.18.24-.35.45-.51.62-.47.49-.84.79-1.12.87-.28.09-.6-.03-.94-.35-.17-.21-.3-.46-.38-.73-.08-.27-.11-.62-.1-1.02s.06-.92.14-1.53c.09-.47.18-.94.26-1.41.08-.47.16-.92.23-1.34.07-.42.14-.78.2-1.07s.11-.49.15-.58c.03-.27.02-.41-.02-.44-.04-.03-.12.05-.24.24-.05.09-.19.32-.42.69-.23.37-.49.82-.79,1.35-.3.54-.6,1.12-.89,1.74-.55,1.02-1,1.86-1.35,2.52-.35.66-.63,1.19-.84,1.57-.21.39-.36.68-.45.86-.09.19-.16.31-.2.38-.04.07-.07.11-.1.14-.12,0-.24-.05-.37-.15-.13-.1-.26-.22-.39-.35-.04-.09-.06-.19-.05-.28,0-.09.05-.23.13-.41.08-.18.2-.46.36-.83.17-.35.33-.65.48-.91.15-.26.26-.42.34-.47.07-.11.13-.21.18-.32.05-.11.09-.23.1-.38.07-.08.17-.24.31-.49.14-.25.28-.52.43-.81.11-.17.24-.4.41-.68.17-.28.34-.59.53-.93.19-.34.35-.66.5-.97.61-1.06,1.14-1.95,1.56-2.68.43-.73.75-1.19.96-1.39.07-.07.14-.16.21-.28.07-.12.11-.23.11-.32,0-.28.06-.54.17-.77.11-.23.23-.34.35-.31.13,0,.25.01.36.04.11.03.22.11.34.26.11.16.2.32.28.48.08.16.07.48-.02.96,0,.19-.02.4-.06.63-.04.23-.08.45-.11.64-.03.19-.06.34-.07.45-.17.52-.33,1.11-.48,1.75-.15.65-.28,1.3-.4,1.96-.12.66-.22,1.28-.3,1.85s-.13,1.04-.15,1.4c-.02.37-.01.58.03.63.09.05.17.06.24.02.07-.04.18-.21.34-.52.09-.16.22-.36.39-.59.17-.23.33-.45.49-.65.11-.19.27-.47.5-.84.23-.38.52-.86.87-1.45.35-.59.78-1.31,1.28-2.15.5-.85,1.07-1.83,1.71-2.96.31-.47.6-.93.87-1.37.27-.45.5-.74.67-.87.19-.17.38-.22.58-.13.2.09.38.26.53.53.15.27.24.6.25,1,.01.19-.01.49-.07.9s-.15.89-.27,1.41c-.12.53-.27,1.07-.46,1.63-.04.23-.1.51-.19.85s-.18.69-.29,1.05c-.11.36-.21.7-.32,1.02-.07.44-.14.88-.23,1.3-.09.43-.12.71-.09.86-.12.21-.2.52-.24.92-.04.4-.06.81-.06,1.24-.05.52-.09.89-.12,1.1-.03.21-.07.31-.14.3-.17-.05-.26-.02-.26.1Z"/>
    </g>
    <g class="st0">
      <path d="M79.24,39.31c-.62-.23-1.09-.58-1.41-1.07-.33-.49-.5-1.18-.52-2.07-.02-.89.12-2.03.41-3.42.09-.47.23-1,.4-1.6s.38-1.22.61-1.85c.23-.63.48-1.25.74-1.84.26-.59.52-1.12.77-1.57.31-.55.54-.89.71-1.03.17-.14.32-.2.45-.17.25.07.44.19.55.37.11.18.15.37.12.58-.03.21-.16.38-.39.53-.15.17-.34.49-.57.95-.23.46-.47.91-.71,1.33-.27.78-.5,1.46-.7,2.05-.2.59-.37,1.15-.5,1.68-.13.52-.25,1.07-.36,1.64-.12.56-.21,1.02-.27,1.38-.06.36-.1.66-.12.89-.02.23-.03.44-.03.61v.54c.11.17.19.33.26.46.07.13.15.21.26.24.23.11.48.13.77.08.29-.05.57-.16.85-.32.07-.13.21-.25.42-.36.03.07.06.08.09.05.03-.03.06-.08.07-.13-.01-.05,0-.1.04-.15s.09-.1.14-.15c.11-.04.26-.18.47-.41.21-.23.42-.5.64-.79.22-.29.41-.56.56-.8.15-.24.23-.39.23-.44,0-.07.03-.13.08-.18.05-.05.11-.12.18-.2.07-.07.2-.29.41-.65.21-.37.43-.8.68-1.29.25-.49.47-.95.67-1.36.04-.15.11-.38.22-.71.11-.33.22-.71.35-1.13.13-.43.25-.86.37-1.29.12-.43.23-.82.33-1.16s.16-.59.19-.75c.03-.17.07-.32.12-.43s.09-.2.1-.25c.07-.03.15-.02.24.02.09.04.19.09.29.14.1.05.19.1.27.14.08.11.11.24.1.4-.01.16-.06.4-.13.73-.07.33-.18.8-.31,1.41-.28,1.1-.62,2.11-1.01,3.03-.39.92-.82,1.9-1.27,2.93v.12c-.16.09-.29.23-.38.42-.07.12-.12.22-.17.31-.05.09-.1.15-.17.19-.04.12-.1.28-.18.46-.01.07-.06.13-.14.18-.08.05-.16.11-.24.16-.07.03-.11.08-.12.16-.01.08-.04.15-.08.2-.29.44-.63.88-1,1.3s-.76.8-1.15,1.11c-.39.31-.77.54-1.13.67-.24.09-.44.15-.59.16-.15.01-.32,0-.51-.04Z"/>
      <path d="M88.38,39.39c-.2-.08-.4-.17-.61-.26-.21-.09-.4-.23-.58-.41-.18-.18-.34-.43-.47-.75-.13-.39-.22-.77-.27-1.14-.05-.37-.06-.81-.05-1.3,0-.7.05-1.3.15-1.81.1-.52.26-1.04.47-1.57.03-.04.08-.16.15-.35.07-.19.16-.4.26-.63.1-.23.18-.4.23-.52.11-.23.27-.53.49-.91.22-.38.46-.75.71-1.11.39-.57.71-1.03.96-1.36s.49-.62.72-.84c.23-.23.48-.44.77-.65.29-.21.66-.46,1.11-.77.29-.21.62-.33.97-.34.35-.01.68.06.99.23s.54.41.68.73c.15.28.22.62.22,1.01s-.06.81-.18,1.24c-.12.43-.29.85-.5,1.23s-.46.71-.74.96c-.17.16-.33.22-.47.18s-.3-.15-.49-.32c-.12-.23-.18-.36-.19-.4s.02-.07.07-.08c.08-.09.19-.25.32-.48s.27-.47.4-.73.23-.47.28-.63c.11-.56.18-.96.22-1.19.04-.23,0-.41-.12-.53-.05-.05-.13-.07-.23-.06-.1.01-.26.08-.49.2-.31.13-.71.43-1.2.89-.5.46-.95.97-1.36,1.53-.54.71-.98,1.34-1.34,1.88-.36.55-.63,1.11-.82,1.68-.03.05-.1.23-.22.52.01.05,0,.18-.06.39s-.11.38-.18.53c-.15.62-.23,1.25-.26,1.92-.03.66.01,1.25.11,1.75s.25.86.45,1.06c.17.12.41.16.71.12.3-.04.64-.13,1.03-.28s.78-.31,1.18-.48c.32-.13.61-.28.88-.44.27-.16.47-.3.6-.42.11-.08.24-.16.41-.25.17-.09.31-.13.43-.13.19-.07.29-.09.32-.08.03.01.04.07.04.18,0,.19-.1.39-.31.62-.21.23-.47.43-.79.62-.11.11-.25.22-.42.34-.17.12-.35.21-.54.28-.28.21-.63.42-1.04.62-.42.2-.83.35-1.25.46-.42.11-.8.13-1.15.06Z"/>
      <path d="M95.76,39.93c-.08-.04-.15-.07-.21-.08-.06-.01-.13-.02-.21-.02-.21-.05-.37-.17-.46-.35-.09-.18-.11-.38-.06-.59.05-.05.09-.17.12-.34.03-.17.04-.31.04-.42.05-.11.09-.18.1-.23.01-.05.05-.18.1-.39.04-.23.11-.54.21-.95.1-.41.21-.85.34-1.31.13-.47.25-.92.37-1.34s.23-.79.33-1.08c.1-.29.17-.46.21-.5v-.22c.04-.25.11-.46.22-.62.05-.15.1-.31.14-.48s.06-.29.06-.34c.05-.07.13-.23.23-.49.1-.26.2-.52.29-.77.08-.21.17-.44.27-.68.1-.24.22-.54.37-.88v-.1c.05-.05.18-.32.39-.81.21-.49.49-1.12.85-1.89.05-.11.12-.23.2-.36.08-.13.12-.23.12-.28.07-.11.16-.16.28-.15s.24.05.37.13.22.19.29.34l.2.32-.72,1.44c-.21.37-.39.72-.53,1.02-.14.31-.21.49-.21.54-.16.43-.29.79-.4,1.08-.11.29-.2.56-.28.8-.15.42-.28.76-.41,1.02s-.19.43-.19.48c0-.03.15-.05.44-.06s.67-.02,1.12-.02.92,0,1.39,0,.9-.01,1.26-.02c.37,0,.62-.02.75-.05l1.04-.1.68-2.06c.11-.37.25-.83.42-1.36.17-.54.33-.99.46-1.36.21-.61.38-1,.5-1.14.12-.15.26-.22.42-.22.04,0,.1.01.17.03.07.02.15.05.22.1.07.05.12.11.15.19.16.15.24.31.23.5,0,.19-.12.43-.33.74-.21.36-.39.75-.53,1.17s-.26.77-.37,1.03c0,.16-.02.29-.06.39-.04.1-.09.18-.14.23-.03.03-.08.13-.16.3-.08.17-.15.35-.22.52-.07.17-.1.28-.1.32,0,.09-.02.21-.06.34s-.09.23-.14.28c-.03.08-.09.28-.18.6-.09.32-.2.7-.32,1.13-.12.43-.25.86-.38,1.26s-.25.74-.36,1.01c0,.09-.03.21-.1.35-.07.14-.1.26-.1.37-.05.16-.12.36-.2.6-.08.24-.12.39-.12.46-.07.31-.14.62-.21.94s-.13.6-.18.83c-.05.23-.07.37-.07.41-.05.05-.13.06-.24.02-.11-.04-.23-.09-.38-.14-.25-.15-.4-.3-.45-.47-.05-.17,0-.4.15-.71.07-.11.15-.37.25-.79.1-.42.2-.84.31-1.25.08-.2.17-.47.26-.81.09-.34.19-.69.28-1.04.09-.36.17-.65.24-.9.07-.25.11-.38.14-.41v-.2s-.19-.05-.5-.07c-.31-.02-.69-.03-1.14-.02-.45,0-.93.02-1.41.04-.49.02-.93.06-1.31.11h-1.46l-.14.42c-.08.24-.17.53-.28.87-.11.34-.22.69-.33,1.04-.11.36-.21.68-.28.96-.07.29-.12.49-.15.61-.05.24-.12.54-.21.9s-.18.73-.28,1.11c-.1.38-.19.71-.26.99-.07.28-.12.46-.15.54Z"/>
    </g>
    <g class="st0">
      <path d="M121.46,39.23c-.01.08-.09.1-.23.07-.14-.03-.26-.13-.37-.29-.11-.25-.16-.49-.16-.7s0-.54.02-.96c.08-.47.19-1.08.33-1.83.14-.76.31-1.61.5-2.55.19-.94.4-1.93.63-2.96.16-.53.29-1.03.39-1.47.1-.45.2-.95.31-1.51,0-.04-.04-.02-.11.05-.07.07-.14.16-.21.25-.07.09-.09.17-.08.22-.19.27-.35.51-.5.74-.13.13-.29.4-.48.8-.19.4-.39.78-.62,1.12-.21.4-.44.83-.68,1.29s-.46.85-.64,1.15c-.12.17-.24.38-.36.6-.12.23-.19.38-.22.44-.05.15-.15.32-.28.53s-.28.41-.44.61c-.08.12-.16.24-.24.37s-.17.28-.26.45c0,.04-.06.16-.19.36-.13.2-.28.42-.46.66s-.35.45-.51.62c-.47.49-.84.79-1.12.87-.28.09-.6-.03-.94-.35-.17-.21-.3-.46-.38-.73-.08-.27-.11-.62-.1-1.02.01-.41.06-.92.14-1.53.09-.47.18-.94.26-1.41.08-.47.16-.92.23-1.34.07-.42.14-.78.2-1.07.06-.29.11-.49.15-.58.03-.27.02-.41-.02-.44-.04-.03-.12.05-.24.24-.05.09-.19.32-.42.69-.23.37-.49.82-.79,1.35-.3.54-.6,1.12-.89,1.74-.55,1.02-1,1.86-1.35,2.52-.35.66-.63,1.19-.84,1.57-.21.39-.36.68-.45.86-.09.19-.16.31-.2.38-.04.07-.07.11-.1.14-.12,0-.24-.05-.37-.15-.13-.1-.26-.22-.39-.35-.04-.09-.06-.19-.05-.28,0-.09.05-.23.13-.41.08-.18.2-.46.36-.83.17-.35.33-.65.48-.91.15-.26.26-.42.34-.47.07-.11.13-.21.18-.32s.09-.23.1-.38c.07-.08.17-.24.31-.49.14-.25.28-.52.43-.81.11-.17.24-.4.41-.68.17-.28.34-.59.53-.93.19-.34.35-.66.5-.97.61-1.06,1.14-1.95,1.56-2.68s.75-1.19.96-1.39c.07-.07.14-.16.21-.28s.11-.23.11-.32c0-.28.06-.54.17-.77.11-.23.23-.34.35-.31.13,0,.25.01.36.04.11.03.22.11.34.26.11.16.2.32.28.48.08.16.07.48-.02.96,0,.19-.02.4-.06.63-.04.23-.08.45-.11.64-.03.19-.06.34-.07.45-.17.52-.33,1.11-.48,1.75-.15.65-.28,1.3-.4,1.96-.12.66-.22,1.28-.3,1.85s-.13,1.04-.15,1.4c-.02.37-.01.58.03.63.09.05.17.06.24.02.07-.04.18-.21.34-.52.09-.16.22-.36.39-.59.17-.23.33-.45.49-.65.11-.19.27-.47.5-.84.23-.38.52-.86.87-1.45.35-.59.78-1.31,1.28-2.15.5-.85,1.07-1.83,1.71-2.96.31-.47.6-.93.87-1.37.27-.45.5-.74.67-.87.19-.17.38-.22.58-.13.2.09.38.26.53.53.15.27.24.6.25,1,.01.19,0,.49-.07.9-.06.41-.15.89-.27,1.41-.12.53-.27,1.07-.46,1.63-.04.23-.1.51-.19.85s-.18.69-.29,1.05-.21.7-.32,1.02c-.07.44-.14.88-.23,1.3-.09.43-.12.71-.09.86-.12.21-.2.52-.24.92-.04.4-.06.81-.06,1.24-.05.52-.09.89-.12,1.1-.03.21-.07.31-.14.3-.17-.05-.26-.02-.26.1Z"/>
    </g>
    <g class="st0">
      <path d="M125.51,38.67c-.5-.38-.81-.67-.94-.87-.13-.21-.21-.46-.24-.75-.03-.24-.02-.57,0-.98s.08-.82.13-1.22c.05-.4.1-.7.14-.9.07-.07.09-.21.08-.44-.01-.07.03-.24.14-.53.11-.29.21-.66.3-1.11.27-.8.52-1.47.77-2.01.25-.54.49-1.01.73-1.39.24-.39.48-.74.72-1.06.55-.56.99-.99,1.32-1.27.33-.29.71-.52,1.12-.71.27-.16.52-.29.74-.38.23-.09.41-.11.56-.04.75.16,1.31.46,1.68.91.37.45.65,1.14.82,2.08.09.59.15,1.12.17,1.59.02.47-.02.94-.11,1.4-.09.46-.26.97-.51,1.51-.25.55-.59,1.19-1.03,1.93-.47.92-.99,1.72-1.57,2.41-.58.68-1.18,1.22-1.78,1.61-.61.39-1.2.62-1.77.67s-1.07-.09-1.49-.42ZM126.79,38.09c.31-.04.6-.13.88-.28.28-.15.57-.36.88-.65.31-.29.65-.65,1.04-1.09.35-.4.63-.74.85-1.01.22-.28.41-.55.56-.83.15-.28.3-.62.44-1.02s.3-.92.49-1.56c.11-.4.19-.73.24-1,.05-.27.09-.52.1-.75.01-.23.02-.5.01-.81s-.01-.7-.01-1.18c-.01-.23-.06-.46-.14-.71-.08-.25-.17-.43-.28-.55-.13-.15-.32-.25-.56-.31-.24-.06-.51-.02-.8.11-.16.07-.37.22-.62.45-.25.23-.52.5-.8.81-.28.31-.54.62-.79.94-.25.32-.45.61-.6.85-.15.25-.23.42-.23.51-.01.13-.05.23-.1.3-.17.19-.37.52-.57,1s-.4,1.03-.59,1.63c-.19.61-.34,1.21-.47,1.8-.13.6-.2,1.11-.23,1.55-.03.36-.04.61-.04.74s.03.24.08.31c.05.07.14.21.26.41.08.13.22.23.41.3.19.07.39.08.59.04Z"/>
    </g>
    <g class="st0">
      <path d="M134.32,39.47c-.05.13-.15.21-.29.22s-.32-.07-.55-.24c-.16-.16-.26-.29-.31-.37-.05-.09-.02-.23.07-.44s.25-.57.48-1.09c.05-.32.15-.64.28-.97s.23-.56.3-.69c.05-.19.16-.5.33-.93.17-.43.36-.92.58-1.45s.43-1.04.63-1.51c.2-.47.35-.83.44-1.07.23-.53.46-1.1.7-1.68.24-.59.57-1.33.98-2.23.05-.13.08-.27.09-.42,0-.15-.1-.22-.33-.22-.13-.15-.21-.3-.22-.45-.01-.15.05-.26.2-.33l1.04-.42c.63-.15,1.27-.19,1.93-.13.66.06,1.29.24,1.88.55.64.37,1.1.75,1.36,1.13s.4.76.41,1.15-.06.77-.21,1.14c-.11.28-.31.59-.61.92s-.65.67-1.04,1c-.39.33-.8.64-1.22.91-.42.27-.81.48-1.17.63-.33.16-.68.3-1.04.42-.36.12-.73.24-1.12.36-.21.05-.47.08-.76.08s-.52-.03-.66-.08l-.34.94c-.13.48-.36,1.2-.69,2.15-.33.95-.71,1.99-1.13,3.13ZM142.28,39.69c-.11.04-.23.05-.37.04-.14-.01-.36-.12-.67-.32-.59-.35-1.18-.77-1.76-1.26s-1.25-1.16-1.98-2.01c-.28-.33-.52-.64-.71-.92-.19-.28-.4-.68-.61-1.18l-.28-1.08.54-.3.72.72c.21.47.49.92.83,1.34s.66.81.95,1.14c.24.28.57.62.98,1.01.41.39.86.77,1.32,1.13s.89.63,1.26.82c.08.07.11.17.08.3-.03.13-.07.26-.13.37-.06.11-.12.18-.17.19ZM137.1,32.23c.31-.03.67-.1,1.08-.23.41-.13.83-.28,1.24-.45.39-.19.8-.41,1.23-.67.43-.26.84-.55,1.21-.87.37-.32.68-.65.91-1,.23-.35.34-.7.31-1.04,0-.17-.07-.35-.2-.54-.13-.19-.29-.35-.48-.5-.19-.15-.37-.25-.54-.3-.54-.13-.98-.22-1.32-.26-.35-.04-.62-.02-.8.07-.19.09-.31.26-.38.53,0,.04-.05.17-.16.4-.11.23-.24.51-.39.84-.15.33-.3.69-.45,1.06-.39.79-.68,1.39-.88,1.79-.2.41-.33.69-.38.85-.05.16-.05.27,0,.32Z"/>
    </g>
    <g class="st0">
      <path d="M146.04,38.75c-.41-.03-.78-.15-1.09-.38-.31-.23-.65-.46-.99-.7-.23-.23-.41-.47-.54-.73-.13-.26-.24-.61-.32-1.03-.05-.25-.05-.57,0-.96.05-.39.14-.78.26-1.17s.23-.71.34-.95c.16-.38.36-.78.61-1.21.25-.43.49-.85.74-1.24.25-.39.44-.71.59-.95.09-.09.13-.15.12-.16,0-.07.07-.24.21-.51.14-.27.26-.52.37-.73.2-.21.31-.39.34-.52.03-.13,0-.24-.06-.32-.03-.05.02-.15.14-.28.12-.13.3-.29.54-.46s.51-.35.82-.52c.32-.25.63-.39.93-.41.3-.02.48.04.53.19,0,.04.08.05.23.03.15-.02.33-.05.54-.1s.39-.08.55-.11c.07-.08.22-.14.47-.19s.54-.09.87-.13c.17.01.34.02.51,0,.17,0,.36-.02.59-.05.09-.03.2-.01.33.04.13.05.24.2.35.44.09.24.06.42-.09.54s-.5.21-1.05.28c-.4.05-.75.1-1.04.13-.29.03-.6.07-.92.12-.32.05-.71.12-1.18.23-.33.07-.61.14-.82.23-.21.09-.4.21-.56.38s-.34.4-.54.71c-.09.07-.21.24-.36.52-.15.28-.29.56-.44.84-.37.52-.7.97-.97,1.35-.27.38-.38.61-.33.67.29.08.47.12.52.12.13-.07.3-.11.49-.14.19-.03.35-.05.47-.08.83-.21,1.48-.38,1.96-.5s.83-.21,1.08-.27c.25-.06.44-.1.57-.11.19-.15.37-.17.55-.08.18.09.32.24.43.44.07.15.07.27,0,.38-.06.11-.23.21-.5.32-.27.11-.68.23-1.21.38-.54.15-1.24.34-2.11.58-.74.21-1.36.34-1.88.38-.52.04-.77-.07-.74-.34-.09-.05-.2,0-.31.19-.11.18-.22.43-.33.73-.11.31-.2.63-.27.98s-.12.67-.14.97c-.02.3,0,.52.05.67.11.31.25.55.42.73.17.18.49.34.94.47.27.01.53.03.78.06.25.03.54-.03.86-.16.79-.13,1.41-.27,1.86-.42.45-.15.71-.25.78-.3.11-.05.18-.08.21-.09.03,0,.08-.01.15-.01-.04.07-.02.07.05.01.07-.06.18-.16.31-.29.15-.13.34-.26.58-.38.24-.12.46-.21.65-.28.19-.07.3-.07.31,0,.08.13.07.32-.04.55-.11.23-.3.49-.58.76-.28.28-.64.54-1.08.79-.71.37-1.48.64-2.31.79-.83.15-1.57.24-2.23.25Z"/>
    </g>
  </g>
  <path d="M138.07,10.87c-26.38-3.3-53.04-2.21-79.46.03-6.71.57-13.41,1.21-20.11,1.87-6.03.6-12.31.82-18.18,2.44-4.88,1.35-9.63,4.06-12.23,8.56s-2.06,9.38.36,13.61c2.68,4.7,7.31,7.67,12.23,9.63,5.54,2.2,11.49,3.51,17.31,4.73,12.38,2.59,25,3.93,37.63,4.44,12.82.52,25.65.19,38.45-.53,6.42-.36,12.83-.8,19.24-1.33,5.73-.48,11.51-1.13,16.99-2.96,9.21-3.09,18.29-10.93,18.13-21.43-.17-11-10.65-17.6-20.08-20.32-2.87-.83-5.8-1.43-8.72-2.02-.75-.15-1.08,1.01-.32,1.16,10.17,2.02,22.65,5.15,26.86,15.93,3.88,9.93-3.62,19.81-12.31,23.97-5.25,2.51-11.08,3.53-16.82,4.14s-11.84.98-17.76,1.36c-12.01.77-24.05,1.24-36.09,1.06s-24.47-1.07-36.54-3.05c-5.9-.97-11.76-2.2-17.54-3.73-5.28-1.4-10.74-3.02-15.1-6.44-4.07-3.19-7.2-8.46-6.28-13.78s5.29-8.94,9.93-10.81c5.49-2.22,11.59-2.47,17.41-3.05,6.21-.62,12.42-1.23,18.63-1.79,24.94-2.24,50.09-3.66,75.09-1.45,3.1.27,6.19.61,9.28.99.76.1.76-1.11,0-1.2h0v-.03Z"/>
</svg>